<!-- icon666.com - MILLIONS vector ICONS FREE --><svg id="Layer_1" viewBox="0 0 512 512" xmlns="http://www.w3.org/2000/svg" data-name="Layer 1"><path d="m334.448 182.825c-.771.41-86.4 53.034-128.083 78.812-6.278 3.883-8.554 8.758-6.7 15.559 4.258 15.583 8.918 31.056 13.349 46.593.61 2.137 1.208 4.235 3.828 4.271 3.256.042 3.405-2.787 3.739-4.946 1.094-7.083 2.276-14.176 2.819-21.311a26.3 26.3 0 0 1 9.008-18.139c28.422-26.256 97.466-90.491 103.622-96.291 2.021-1.9 1.858-4.88-1.582-4.548z"></path><path d="m420 36h-328a56 56 0 0 0 -56 56v328a56 56 0 0 0 56 56h328a56 56 0 0 0 56-56v-328a56 56 0 0 0 -56-56zm-69.229 335.042c-2 9.622-7.161 11.705-15.192 5.874q-30.225-21.944-60.427-43.916c-8.468-6.157-11.933-5.957-20.166.846q-15.154 12.524-30.463 24.862c-8.216 6.605-13.031 5.1-16.121-4.833-7.602-24.453-15.318-48.875-22.702-73.389-1.169-3.879-3.08-5.924-6.775-7.259-18.749-6.778-37.424-13.756-56.126-20.664-3.7-1.37-7.343-2.844-9.76-6.231 0-6.059 1.781-8.949 7.6-11.186q132.575-50.973 265.088-102.1c5.875-2.271 10.091-1.531 13.242 4-.004 1.691-34.378 167.68-48.198 233.996z"></path></svg>