<!-- icon666.com - MILLIONS vector ICONS FREE --><svg id="Layer_1" viewBox="0 0 512 512" xmlns="http://www.w3.org/2000/svg" data-name="Layer 1"><path d="m420 36h-328a56 56 0 0 0 -56 56v328a56 56 0 0 0 56 56h328a56 56 0 0 0 56-56v-328a56 56 0 0 0 -56-56zm-27.076 294.14c0 17.475-12.323 31.774-27.384 31.774h-219.079c-15.062 0-27.385-14.3-27.385-31.774v-148.28c0-17.475 12.323-31.774 27.385-31.774h219.079c15.061 0 27.384 14.3 27.384 31.774z"></path><path d="m214.923 303.376 82.154-47.376-82.154-47.376z"></path></svg>